<svg width="16px" height="12px" viewBox="0 0 16 12" version="1.1" xmlns="http://www.w3.org/2000/svg" xmlns:xlink="http://www.w3.org/1999/xlink">
    <g id="Page-1" stroke="none" stroke-width="1" fill="none" fill-rule="evenodd">
        <g id="Galaxy-S10" transform="translate(-327.000000, -14.000000)">
            <g id="Group" transform="translate(327.000000, 14.000000)">
                <rect id="Rectangle" x="0" y="0" width="16" height="13"></rect>
                <path d="M1,7.00866284 C2.99913495,4.72563951 5.33246829,3.40799592 8,3.05573205 C10.6675317,2.70346819 13.000865,4.02111179 15,7.00866284 C12.8033517,9.66955428 10.4700183,11 8,11 C5.52998168,11 3.19664834,9.66955428 1,7.00866284 Z" id="Path-3" stroke="#000000"></path>
                <circle id="Oval" stroke="#000000" cx="7.5" cy="7" r="2.5"></circle>
                <path d="M1.5,5.33333333 L0.5,2.66666667" id="Line-5" stroke="#000000" stroke-linecap="square"></path>
                <path d="M4,4 L3.5,1.5" id="Line-6" stroke="#000000" stroke-linecap="square"></path>
                <path d="M13,4 L14.5,2.5" id="Line-6-Copy" stroke="#000000" stroke-linecap="square"></path>
                <path d="M14.75,5.75 L15.5,4.5" id="Line-6-Copy-2" stroke="#000000" stroke-linecap="square"></path>
                <path d="M7,3 L7,1" id="Line-7" stroke="#000000" stroke-linecap="square"></path>
                <path d="M10,2.91666667 L11,1.08333333" id="Line-8" stroke="#000000" stroke-linecap="square"></path>
            </g>
        </g>
    </g>
</svg>
